# Blender v2.79 (sub 0) OBJ File: 'Spitzhacke.blend'
# www.blender.org
mtllib pickaxe.mtl
o Spitzhacke_Plane
v -45.119049 3.125000 45.119049
v 4.880952 3.125000 -4.880952
v 4.880952 3.125000 -29.880953
v 29.880953 3.125000 -4.880952
v 29.880953 3.125000 -29.880953
v -20.119047 3.125000 -29.880953
v -20.119047 3.125000 20.119047
v 29.880953 3.125000 20.119047
v -32.619049 3.125000 45.119049
v -45.119049 3.125000 32.619049
v 17.380953 3.125000 -4.880952
v 4.880952 3.125000 -17.380953
v 4.880952 3.125000 7.619047
v -7.619047 3.125000 -4.880952
v 29.880953 3.125000 -17.380953
v 17.380953 3.125000 -29.880953
v -20.119047 3.125000 -17.380953
v -7.619047 3.125000 -29.880953
v -20.119047 3.125000 7.619047
v -20.119047 3.125000 32.619049
v -32.619049 3.125000 20.119047
v -7.619047 3.125000 20.119047
v 29.880953 3.125000 7.619047
v 17.380953 3.125000 20.119047
v -7.619047 3.125000 7.619047
v 17.380953 3.125000 -17.380953
v -7.619047 3.125000 -17.380953
v -32.619049 3.125000 32.619049
v 17.380953 3.125000 7.619047
v -38.869049 3.125000 45.119049
v -45.119049 3.125000 38.869049
v 11.130953 3.125000 -4.880952
v 4.880952 3.125000 -11.130953
v 4.880952 3.125000 1.369048
v -1.369048 3.125000 -4.880952
v 29.880953 3.125000 -11.130953
v 11.130953 3.125000 -29.880953
v -13.869047 3.125000 -29.880953
v -13.869047 3.125000 20.119047
v 29.880953 3.125000 1.369048
v 36.130951 3.125000 20.119047
v 4.880952 3.125000 -36.130951
v 23.630953 3.125000 -4.880952
v 4.880952 3.125000 -23.630953
v 36.130951 3.125000 -4.880952
v 29.880953 3.125000 -23.630953
v 23.630953 3.125000 -29.880953
v -20.119047 3.125000 -36.130951
v -20.119047 3.125000 -23.630953
v -26.369047 3.125000 -29.880953
v -1.369048 3.125000 -29.880953
v -20.119047 3.125000 13.869047
v -20.119047 3.125000 26.369047
v -26.369047 3.125000 20.119047
v 29.880953 3.125000 13.869047
v 29.880953 3.125000 26.369047
v 23.630953 3.125000 20.119047
v -7.619047 3.125000 -36.130951
v -7.619047 3.125000 1.369048
v -7.619047 3.125000 13.869047
v -13.869047 3.125000 7.619047
v -1.369048 3.125000 7.619047
v 36.130951 3.125000 7.619047
v -13.869047 -3.125000 26.369047
v -38.869049 -3.125000 26.369047
v 17.380953 3.125000 -23.630953
v 17.380953 3.125000 -11.130953
v 11.130953 3.125000 -17.380953
v 23.630953 3.125000 -17.380953
v 36.130951 -3.125000 -11.130953
v 11.130953 -3.125000 -36.130951
v 36.130951 -3.125000 13.869047
v -13.869047 -3.125000 1.369048
v -1.369048 -3.125000 -36.130951
v 23.630953 -3.125000 26.369047
v -26.369047 -3.125000 -23.630953
v 17.380953 -3.125000 1.369048
v -7.619047 3.125000 -23.630953
v -26.369047 -3.125000 32.619049
v -13.869047 3.125000 -17.380953
v -1.369048 3.125000 -17.380953
v -32.619049 -3.125000 26.369047
v -32.619049 3.125000 26.369047
v -32.619049 3.125000 38.869049
v -38.869049 3.125000 32.619049
v -26.369047 3.125000 32.619049
v -13.869047 -3.125000 -17.380953
v 36.130951 -3.125000 7.619047
v 17.380953 3.125000 1.369048
v 17.380953 3.125000 13.869047
v 23.630953 3.125000 7.619047
v -7.619047 -3.125000 1.369048
v 23.630953 -3.125000 20.119047
v 29.880953 -3.125000 26.369047
v -20.119047 -3.125000 26.369047
v -20.119047 -3.125000 13.869047
v -26.369047 -3.125000 -29.880953
v -20.119047 -3.125000 -36.130951
v -1.369048 3.125000 1.369048
v 23.630953 -3.125000 -29.880953
v 29.880953 -3.125000 -23.630953
v 23.630953 3.125000 -23.630953
v -26.369047 3.125000 -23.630953
v -1.369048 3.125000 -23.630953
v 36.130951 -3.125000 20.119047
v -26.369047 3.125000 26.369047
v -13.869047 -3.125000 20.119047
v 23.630953 3.125000 1.369048
v 23.630953 3.125000 26.369047
v 4.880952 -3.125000 -11.130953
v -13.869047 3.125000 -36.130951
v -1.369048 3.125000 -36.130951
v -13.869047 3.125000 1.369048
v -13.869047 3.125000 13.869047
v -1.369048 3.125000 13.869047
v 36.130951 3.125000 1.369048
v 36.130951 3.125000 13.869047
v 11.130953 -3.125000 -4.880952
v 11.130953 3.125000 -36.130951
v 11.130953 3.125000 -23.630953
v 11.130953 3.125000 -11.130953
v 23.630953 3.125000 -11.130953
v 36.130951 3.125000 -11.130953
v -20.119047 -3.125000 32.619049
v -13.869047 3.125000 -23.630953
v 17.380953 -3.125000 -29.880953
v -1.369048 3.125000 -11.130953
v 29.880953 -3.125000 -17.380953
v -26.369047 3.125000 13.869047
v -38.869049 3.125000 26.369047
v -38.869049 3.125000 38.869049
v -26.369047 3.125000 38.869049
v -13.869047 3.125000 26.369047
v 4.880952 -3.125000 -17.380953
v 11.130953 3.125000 1.369048
v 17.380953 -3.125000 -4.880952
v 23.630953 3.125000 13.869047
v -45.119049 -3.125000 32.619049
v -32.619049 -3.125000 45.119049
v -45.119049 -3.125000 45.119049
v 4.880952 -3.125000 -4.880952
v 4.880952 -3.125000 -29.880953
v 29.880953 -3.125000 -4.880952
v 29.880953 -3.125000 -29.880953
v -20.119047 -3.125000 -29.880953
v -20.119047 -3.125000 20.119047
v 29.880953 -3.125000 20.119047
v 4.880952 -3.125000 7.619047
v -7.619047 -3.125000 -4.880952
v -20.119047 -3.125000 -17.380953
v -7.619047 -3.125000 -29.880953
v -20.119047 -3.125000 7.619047
v -32.619049 -3.125000 20.119047
v -7.619047 -3.125000 20.119047
v 29.880953 -3.125000 7.619047
v 17.380953 -3.125000 20.119047
v -7.619047 -3.125000 7.619047
v 17.380953 -3.125000 -17.380953
v -7.619047 -3.125000 -17.380953
v -32.619049 -3.125000 32.619049
v 17.380953 -3.125000 7.619047
v -38.869049 -3.125000 45.119049
v -45.119049 -3.125000 38.869049
v 4.880952 -3.125000 1.369048
v -1.369048 -3.125000 -4.880952
v 29.880953 -3.125000 -11.130953
v 11.130953 -3.125000 -29.880953
v -13.869047 -3.125000 -29.880953
v 29.880953 -3.125000 1.369048
v 4.880952 -3.125000 -36.130951
v 23.630953 -3.125000 -4.880952
v 4.880952 -3.125000 -23.630953
v 36.130951 -3.125000 -4.880952
v -20.119047 -3.125000 -23.630953
v -1.369048 -3.125000 -29.880953
v -26.369047 -3.125000 20.119047
v 29.880953 -3.125000 13.869047
v -7.619047 -3.125000 -36.130951
v -7.619047 -3.125000 13.869047
v -13.869047 -3.125000 7.619047
v -1.369048 -3.125000 7.619047
v 17.380953 -3.125000 -23.630953
v 17.380953 -3.125000 -11.130953
v 11.130953 -3.125000 -17.380953
v 23.630953 -3.125000 -17.380953
v -7.619047 -3.125000 -23.630953
v -1.369048 -3.125000 -17.380953
v -32.619049 -3.125000 38.869049
v -38.869049 -3.125000 32.619049
v 17.380953 -3.125000 13.869047
v 23.630953 -3.125000 7.619047
v -1.369048 -3.125000 1.369048
v 23.630953 -3.125000 -23.630953
v -1.369048 -3.125000 -23.630953
v -26.369047 -3.125000 26.369047
v 23.630953 -3.125000 1.369048
v -13.869047 -3.125000 -36.130951
v -13.869047 -3.125000 13.869047
v -1.369048 -3.125000 13.869047
v 36.130951 -3.125000 1.369048
v 11.130953 -3.125000 -23.630953
v 11.130953 -3.125000 -11.130953
v 23.630953 -3.125000 -11.130953
v -13.869047 -3.125000 -23.630953
v -1.369048 -3.125000 -11.130953
v -26.369047 -3.125000 13.869047
v -38.869049 -3.125000 38.869049
v -26.369047 -3.125000 38.869049
v 11.130953 -3.125000 1.369048
v 23.630953 -3.125000 13.869047
vt 0.222656 0.593750
vt 0.226562 0.593750
vt 0.226562 0.597656
vt 0.222656 0.597656
vt 0.238281 0.609375
vt 0.242188 0.609375
vt 0.242188 0.613281
vt 0.238281 0.613281
vt 0.207031 0.578125
vt 0.210938 0.578125
vt 0.210938 0.582031
vt 0.207031 0.582031
vt 0.214844 0.585938
vt 0.218750 0.585938
vt 0.218750 0.589844
vt 0.214844 0.589844
vt 0.199219 0.570312
vt 0.203125 0.570312
vt 0.203125 0.574219
vt 0.199219 0.574219
vt 0.218750 0.593750
vt 0.218750 0.597656
vt 0.222656 0.589844
vt 0.226562 0.589844
vt 0.234375 0.609375
vt 0.234375 0.613281
vt 0.234375 0.605469
vt 0.238281 0.605469
vt 0.242188 0.605469
vt 0.203125 0.578125
vt 0.203125 0.582031
vt 0.207031 0.574219
vt 0.210938 0.574219
vt 0.214844 0.593750
vt 0.210938 0.585938
vt 0.210938 0.589844
vt 0.214844 0.582031
vt 0.218750 0.582031
vt 0.222656 0.585938
vt 0.226562 0.601562
vt 0.230469 0.601562
vt 0.230469 0.605469
vt 0.226562 0.605469
vt 0.230469 0.597656
vt 0.234375 0.597656
vt 0.234375 0.601562
vt 0.207031 0.574219
vt 0.207031 0.578125
vt 0.230469 0.601562
vt 0.230469 0.605469
vt 0.226562 0.605469
vt 0.226562 0.601562
vt 0.242188 0.605469
vt 0.242188 0.609375
vt 0.238281 0.609375
vt 0.238281 0.605469
vt 0.214844 0.578125
vt 0.214844 0.582031
vt 0.210938 0.582031
vt 0.210938 0.578125
vt 0.218750 0.589844
vt 0.214844 0.593750
vt 0.214844 0.589844
vt 0.238281 0.609375
vt 0.238281 0.613281
vt 0.234375 0.613281
vt 0.234375 0.609375
vt 0.222656 0.601562
vt 0.207031 0.585938
vt 0.234375 0.601562
vt 0.230469 0.601562
vt 0.230469 0.597656
vt 0.199219 0.578125
vt 0.195312 0.570312
vt 0.195312 0.574219
vt 0.195312 0.566406
vt 0.199219 0.566406
vt 0.203125 0.566406
vt 0.207031 0.570312
vt 0.214844 0.578125
vt 0.230469 0.593750
vt 0.210938 0.578125
vt 0.207031 0.578125
vt 0.203125 0.574219
vt 0.199219 0.578125
vt 0.199219 0.574219
vt 0.214844 0.582031
vt 0.210938 0.582031
vt 0.210938 0.578125
vt 0.222656 0.593750
vt 0.226562 0.593750
vt 0.226562 0.597656
vt 0.222656 0.597656
vt 0.214844 0.585938
vt 0.218750 0.585938
vt 0.218750 0.589844
vt 0.214844 0.589844
vt 0.199219 0.570312
vt 0.203125 0.570312
vt 0.203125 0.574219
vt 0.199219 0.574219
vt 0.218750 0.593750
vt 0.218750 0.597656
vt 0.234375 0.605469
vt 0.238281 0.605469
vt 0.238281 0.609375
vt 0.234375 0.609375
vt 0.214844 0.593750
vt 0.195312 0.566406
vt 0.199219 0.566406
vt 0.195312 0.570312
vt 0.199219 0.570312
vt 0.199219 0.574219
vt 0.195312 0.574219
vt 0.195312 0.570312
vt 0.242188 0.609375
vt 0.242188 0.613281
vt 0.238281 0.613281
vt 0.238281 0.609375
vt 0.222656 0.589844
vt 0.218750 0.589844
vt 0.218750 0.585938
vt 0.218750 0.589844
vt 0.218750 0.593750
vt 0.214844 0.593750
vt 0.214844 0.589844
vt 0.203125 0.574219
vt 0.203125 0.578125
vt 0.199219 0.578125
vt 0.199219 0.574219
vt 0.199219 0.570312
vt 0.195312 0.570312
vt 0.195312 0.566406
vt 0.214844 0.585938
vt 0.214844 0.589844
vt 0.210938 0.589844
vt 0.210938 0.585938
vt 0.230469 0.593750
vt 0.230469 0.597656
vt 0.226562 0.597656
vt 0.226562 0.593750
vt 0.222656 0.585938
vt 0.222656 0.589844
vt 0.218750 0.589844
vt 0.218750 0.585938
vt 0.210938 0.582031
vt 0.207031 0.585938
vt 0.207031 0.582031
vt 0.203125 0.570312
vt 0.199219 0.570312
vt 0.199219 0.566406
vt 0.218750 0.585938
vt 0.214844 0.585938
vt 0.214844 0.582031
vt 0.226562 0.597656
vt 0.222656 0.601562
vt 0.222656 0.597656
vt 0.207031 0.574219
vt 0.203125 0.574219
vt 0.203125 0.570312
vt 0.199219 0.570312
vt 0.195312 0.574219
vt 0.195312 0.570312
vt 0.222656 0.593750
vt 0.222656 0.597656
vt 0.218750 0.597656
vt 0.218750 0.593750
vt 0.199219 0.566406
vt 0.222656 0.593750
vt 0.218750 0.597656
vt 0.218750 0.593750
vt 0.218750 0.589844
vt 0.218750 0.593750
vt 0.214844 0.593750
vt 0.214844 0.589844
vt 0.203125 0.566406
vt 0.203125 0.570312
vt 0.199219 0.570312
vt 0.199219 0.566406
vt 0.210938 0.582031
vt 0.210938 0.585938
vt 0.207031 0.585938
vt 0.207031 0.582031
vt 0.207031 0.578125
vt 0.203125 0.582031
vt 0.203125 0.578125
vt 0.230469 0.597656
vt 0.226562 0.597656
vt 0.226562 0.593750
vt 0.238281 0.613281
vt 0.226562 0.597656
vt 0.226562 0.601562
vt 0.222656 0.601562
vt 0.222656 0.597656
vt 0.226562 0.589844
vt 0.226562 0.593750
vt 0.222656 0.593750
vt 0.222656 0.589844
vt 0.218750 0.582031
vt 0.218750 0.585938
vt 0.214844 0.585938
vt 0.214844 0.582031
vt 0.226562 0.593750
vt 0.222656 0.593750
vt 0.222656 0.589844
vt 0.207031 0.570312
vt 0.207031 0.574219
vt 0.203125 0.574219
vt 0.203125 0.570312
vt 0.207031 0.578125
vt 0.207031 0.582031
vt 0.203125 0.582031
vt 0.203125 0.578125
vt 0.242188 0.609375
vt 0.242188 0.613281
vt 0.207031 0.578125
vt 0.210938 0.578125
vt 0.210938 0.582031
vt 0.207031 0.582031
vt 0.222656 0.589844
vt 0.226562 0.589844
vt 0.242188 0.605469
vt 0.207031 0.574219
vt 0.210938 0.574219
vt 0.203125 0.578125
vt 0.203125 0.582031
vt 0.222656 0.585938
vt 0.214844 0.582031
vt 0.218750 0.582031
vt 0.210938 0.585938
vt 0.210938 0.589844
vt 0.230469 0.597656
vt 0.234375 0.597656
vt 0.234375 0.601562
vt 0.230469 0.601562
vt 0.226562 0.601562
vt 0.230469 0.605469
vt 0.226562 0.605469
vt 0.230469 0.593750
vt 0.214844 0.578125
vt 0.207031 0.570312
vt 0.203125 0.566406
vt 0.195312 0.574219
vt 0.199219 0.578125
vt 0.207031 0.585938
vt 0.222656 0.601562
vt 0.207031 0.609375
vt 0.210938 0.609375
vt 0.210938 0.613281
vt 0.207031 0.613281
vt 0.222656 0.609375
vt 0.226562 0.609375
vt 0.226562 0.613281
vt 0.222656 0.613281
vt 0.238281 0.593750
vt 0.242188 0.593750
vt 0.242188 0.597656
vt 0.238281 0.597656
vt 0.238281 0.578125
vt 0.242188 0.578125
vt 0.242188 0.582031
vt 0.238281 0.582031
vt 0.230469 0.609375
vt 0.230469 0.613281
vt 0.238281 0.601562
vt 0.242188 0.601562
vt 0.214844 0.609375
vt 0.218750 0.609375
vt 0.218750 0.613281
vt 0.214844 0.613281
vt 0.238281 0.585938
vt 0.242188 0.585938
vt 0.242188 0.589844
vt 0.238281 0.589844
vt 0.218750 0.605469
vt 0.222656 0.605469
vt 0.234375 0.593750
vt 0.234375 0.589844
vt 0.214844 0.617188
vt 0.210938 0.617188
vt 0.218750 0.617188
vt 0.222656 0.617188
vt 0.226562 0.617188
vt 0.246094 0.593750
vt 0.246094 0.597656
vt 0.246094 0.589844
vt 0.246094 0.585938
vt 0.246094 0.582031
vt 0.230469 0.617188
vt 0.246094 0.601562
vt 0.246094 0.597656
vt 0.246094 0.601562
vt 0.242188 0.601562
vt 0.242188 0.597656
vt 0.246094 0.597656
vt 0.246094 0.601562
vt 0.242188 0.601562
vt 0.242188 0.597656
vt 0.246094 0.582031
vt 0.246094 0.585938
vt 0.242188 0.585938
vt 0.242188 0.582031
vt 0.210938 0.605469
vt 0.214844 0.605469
vt 0.246094 0.597656
vt 0.246094 0.601562
vt 0.242188 0.601562
vt 0.242188 0.597656
vt 0.246094 0.593750
vt 0.242188 0.593750
vt 0.234375 0.585938
vt 0.234375 0.582031
vt 0.246094 0.582031
vt 0.246094 0.585938
vt 0.242188 0.585938
vt 0.242188 0.582031
vt 0.238281 0.593750
vt 0.242188 0.593750
vt 0.242188 0.597656
vt 0.238281 0.597656
vt 0.222656 0.609375
vt 0.226562 0.609375
vt 0.226562 0.613281
vt 0.222656 0.613281
vt 0.238281 0.585938
vt 0.242188 0.585938
vt 0.242188 0.589844
vt 0.238281 0.589844
vt 0.214844 0.609375
vt 0.218750 0.609375
vt 0.218750 0.613281
vt 0.214844 0.613281
vt 0.234375 0.589844
vt 0.234375 0.593750
vt 0.246094 0.585938
vt 0.246094 0.589844
vt 0.226562 0.617188
vt 0.222656 0.617188
vt 0.242188 0.601562
vt 0.238281 0.601562
vt 0.230469 0.609375
vt 0.230469 0.613281
vt 0.238281 0.582031
vt 0.242188 0.582031
vt 0.214844 0.605469
vt 0.218750 0.605469
vt 0.246094 0.597656
vt 0.246094 0.601562
vt 0.242188 0.601562
vt 0.242188 0.597656
vt 0.246094 0.582031
vt 0.246094 0.585938
vt 0.242188 0.585938
vt 0.242188 0.582031
vt 0.242188 0.578125
vt 0.242188 0.582031
vt 0.238281 0.582031
vt 0.238281 0.578125
vt 0.246094 0.582031
vt 0.246094 0.585938
vt 0.242188 0.585938
vt 0.242188 0.582031
vt 0.246094 0.589844
vt 0.242188 0.589844
vt 0.246094 0.597656
vt 0.246094 0.601562
vt 0.242188 0.601562
vt 0.242188 0.597656
vt 0.246094 0.585938
vt 0.246094 0.589844
vt 0.242188 0.589844
vt 0.242188 0.585938
vt 0.246094 0.589844
vt 0.242188 0.589844
vt 0.246094 0.589844
vt 0.242188 0.589844
vt 0.246094 0.593750
vt 0.242188 0.593750
vt 0.246094 0.582031
vt 0.246094 0.585938
vt 0.242188 0.585938
vt 0.242188 0.582031
vt 0.242188 0.593750
vt 0.246094 0.597656
vt 0.246094 0.601562
vt 0.242188 0.601562
vt 0.242188 0.597656
vt 0.246094 0.589844
vt 0.246094 0.593750
vt 0.242188 0.593750
vt 0.242188 0.589844
vt 0.246094 0.593750
vt 0.246094 0.597656
vt 0.242188 0.597656
vt 0.242188 0.593750
vt 0.246094 0.589844
vt 0.242188 0.589844
vt 0.246094 0.593750
vt 0.242188 0.593750
vt 0.246094 0.582031
vt 0.242188 0.582031
vt 0.246094 0.601562
vt 0.242188 0.601562
vt 0.238281 0.578125
vt 0.242188 0.578125
vt 0.207031 0.609375
vt 0.210938 0.609375
vt 0.210938 0.613281
vt 0.207031 0.613281
vt 0.222656 0.605469
vt 0.246094 0.582031
vt 0.246094 0.593750
vt 0.246094 0.597656
vt 0.218750 0.617188
vt 0.214844 0.617188
vt 0.210938 0.617188
vt 0.246094 0.601562
vt 0.230469 0.617188
vt 0.234375 0.582031
vt 0.234375 0.585938
vt 0.210938 0.605469
vn 0.0000 1.0000 0.0000
vn 1.0000 0.0000 0.0000
vn -1.0000 0.0000 0.0000
vn 0.0000 0.0000 -1.0000
vn 0.0000 0.0000 1.0000
vn 0.0000 -1.0000 0.0000
usemtl Stiel
s off
f 99/1/1 34/2/1 2/3/1 35/4/1
f 102/5/1 46/6/1 5/7/1 47/8/1
f 106/9/1 53/10/1 7/11/1 54/12/1
f 114/13/1 60/14/1 25/15/1 61/16/1
f 131/17/1 84/18/1 28/19/1 85/20/1
f 59/21/1 99/1/1 35/4/1 14/22/1
f 25/15/1 62/23/1 99/1/1 59/21/1
f 62/23/1 13/24/1 34/2/1 99/1/1
f 66/25/1 102/5/1 47/8/1 16/26/1
f 26/27/1 69/28/1 102/5/1 66/25/1
f 69/28/1 15/29/1 46/6/1 102/5/1
f 83/30/1 106/9/1 54/12/1 21/31/1
f 28/19/1 86/32/1 106/9/1 83/30/1
f 86/32/1 20/33/1 53/10/1 106/9/1
f 61/16/1 25/15/1 59/21/1 113/34/1
f 52/35/1 114/13/1 61/16/1 19/36/1
f 7/11/1 39/37/1 114/13/1 52/35/1
f 39/37/1 22/38/1 60/14/1 114/13/1
f 60/14/1 115/39/1 62/23/1 25/15/1
f 33/40/1 121/41/1 68/42/1 12/43/1
f 2/3/1 32/44/1 121/41/1 33/40/1
f 32/44/1 11/45/1 67/46/1 121/41/1
f 53/10/2 20/33/2 124/47/2 95/48/2
f 33/49/3 12/50/3 134/51/3 110/52/3
f 16/53/4 47/54/4 100/55/4 126/56/4
f 39/57/2 133/58/2 64/59/2 107/60/2
f 113/61/4 59/21/4 92/62/4 73/63/4
f 46/64/2 15/65/2 128/66/2 101/67/2
f 35/4/1 2/3/1 33/40/1 127/68/1
f 54/12/1 7/11/1 52/35/1 129/69/1
f 11/45/5 32/70/5 118/71/5 136/72/5
f 85/20/1 28/19/1 83/30/1 130/73/1
f 31/74/1 131/17/1 85/20/1 10/75/1
f 1/76/1 30/77/1 131/17/1 31/74/1
f 30/77/1 9/78/1 84/18/1 131/17/1
f 84/18/1 132/79/1 86/32/1 28/19/1
f 53/10/1 133/80/1 39/37/1 7/11/1
f 34/2/1 135/81/1 32/44/1 2/3/1
f 20/33/5 86/82/5 79/83/5 124/47/5
f 130/84/4 83/30/4 82/85/4 65/86/4
f 133/80/5 53/87/5 95/88/5 64/89/5
f 192/90/6 165/91/6 141/92/6 164/93/6
f 198/94/6 180/95/6 157/96/6 179/97/6
f 207/98/6 189/99/6 160/100/6 188/101/6
f 181/102/6 192/90/6 164/93/6 148/103/6
f 158/104/6 182/105/6 193/106/6 185/107/6
f 179/97/6 157/96/6 181/102/6 199/108/6
f 140/109/6 163/110/6 207/98/6 162/111/6
f 31/112/3 10/113/3 138/114/3 163/115/3
f 5/116/2 46/117/2 101/118/2 144/119/2
f 115/39/5 60/120/5 179/121/5 199/122/5
f 59/123/3 14/124/3 149/125/3 92/126/3
f 85/127/3 130/128/3 65/129/3 189/130/3
f 30/77/5 1/131/5 140/132/5 162/133/5
f 52/134/3 19/135/3 152/136/3 96/137/3
f 32/138/2 135/139/2 209/140/2 118/141/2
f 62/142/2 115/143/2 199/144/2 181/145/2
f 129/146/4 52/35/4 96/147/4 206/148/4
f 9/78/5 30/149/5 162/150/5 139/151/5
f 22/38/5 39/152/5 107/153/5 154/154/5
f 127/155/4 33/40/4 110/156/4 205/157/4
f 132/79/5 84/158/5 188/159/5 208/160/5
f 10/161/4 85/20/4 189/162/4 138/163/4
f 61/164/3 113/165/3 73/166/3 180/167/3
f 1/168/3 31/112/3 163/115/3 140/109/3
f 14/169/4 35/4/4 165/170/4 149/171/4
f 19/172/4 61/173/4 180/174/4 152/175/4
f 84/176/2 9/177/2 139/178/2 188/179/2
f 54/180/3 129/181/3 206/182/3 176/183/3
f 21/184/4 54/12/4 176/185/4 153/186/4
f 135/81/5 34/187/5 164/188/5 209/189/5
f 47/54/4 5/7/4 144/190/4 100/55/4
f 35/191/3 127/192/3 205/193/3 165/194/3
f 34/195/2 13/196/2 148/197/2 164/198/2
f 60/199/2 22/200/2 154/201/2 179/202/2
f 13/24/5 62/203/5 181/204/5 148/205/5
f 86/206/2 132/207/2 208/208/2 79/209/2
f 83/210/3 21/211/3 153/212/3 82/213/3
f 193/106/6 100/214/6 144/215/6 101/118/6
f 195/216/6 176/217/6 146/218/6 95/219/6
f 92/220/6 149/221/6 165/91/6 192/90/6
f 157/96/6 92/220/6 192/90/6 181/102/6
f 182/105/6 126/222/6 100/214/6 193/106/6
f 185/107/6 193/106/6 101/118/6 128/66/6
f 82/223/6 153/224/6 176/217/6 195/216/6
f 160/100/6 82/223/6 195/216/6 79/225/6
f 79/225/6 195/216/6 95/219/6 124/226/6
f 180/95/6 73/227/6 92/220/6 157/96/6
f 96/228/6 152/229/6 180/95/6 198/94/6
f 146/218/6 96/228/6 198/94/6 107/230/6
f 107/230/6 198/94/6 179/97/6 154/231/6
f 110/232/6 134/233/6 184/234/6 202/235/6
f 141/92/6 110/232/6 202/235/6 118/236/6
f 118/236/6 202/235/6 183/237/6 136/238/6
f 165/91/6 205/239/6 110/232/6 141/92/6
f 176/217/6 206/240/6 96/228/6 146/218/6
f 189/99/6 65/241/6 82/223/6 160/100/6
f 163/110/6 138/242/6 189/99/6 207/98/6
f 162/111/6 207/98/6 188/101/6 139/243/6
f 188/101/6 160/100/6 79/225/6 208/244/6
f 95/219/6 146/218/6 107/230/6 64/245/6
f 164/93/6 141/92/6 118/236/6 209/246/6
usemtl Hacke
f 103/247/1 49/248/1 6/249/1 50/250/1
f 104/251/1 44/252/1 3/253/1 51/254/1
f 108/255/1 40/256/1 4/257/1 43/258/1
f 109/259/1 56/260/1 8/261/1 57/262/1
f 120/263/1 66/25/1 16/26/1 37/264/1
f 121/41/1 67/46/1 26/27/1 68/42/1
f 122/265/1 36/266/1 15/29/1 69/28/1
f 125/267/1 78/268/1 18/269/1 38/270/1
f 137/271/1 55/272/1 23/273/1 91/274/1
f 78/268/1 104/251/1 51/254/1 18/269/1
f 27/275/1 81/276/1 104/251/1 78/268/1
f 81/276/1 12/43/1 44/252/1 104/251/1
f 89/277/1 108/255/1 43/258/1 11/45/1
f 29/278/1 91/274/1 108/255/1 89/277/1
f 91/274/1 23/273/1 40/256/1 108/255/1
f 6/249/1 38/270/1 111/279/1 48/280/1
f 38/270/1 18/269/1 58/281/1 111/279/1
f 18/269/1 51/254/1 112/282/1 58/281/1
f 51/254/1 3/253/1 42/283/1 112/282/1
f 40/256/1 116/284/1 45/285/1 4/257/1
f 23/273/1 63/286/1 116/284/1 40/256/1
f 55/272/1 117/287/1 63/286/1 23/273/1
f 8/261/1 41/288/1 117/287/1 55/272/1
f 3/253/1 37/264/1 119/289/1 42/283/1
f 44/252/1 120/263/1 37/264/1 3/253/1
f 12/43/1 68/42/1 120/263/1 44/252/1
f 68/42/1 26/27/1 66/25/1 120/263/1
f 67/46/1 122/265/1 69/28/1 26/27/1
f 11/45/1 43/258/1 122/265/1 67/46/1
f 43/258/1 4/257/1 36/266/1 122/265/1
f 4/257/1 45/285/1 123/290/1 36/266/1
f 63/291/2 117/292/2 72/293/2 88/294/2
f 109/295/3 57/296/3 93/297/3 75/298/3
f 103/299/3 50/300/3 97/301/3 76/302/3
f 49/248/1 125/267/1 38/270/1 6/249/1
f 17/303/1 80/304/1 125/267/1 49/248/1
f 80/304/1 27/275/1 78/268/1 125/267/1
f 89/305/3 11/306/3 136/307/3 77/308/3
f 56/309/5 109/295/5 75/298/5 94/310/5
f 90/311/1 137/271/1 91/274/1 29/278/1
f 24/312/1 57/262/1 137/271/1 90/311/1
f 57/262/1 8/261/1 55/272/1 137/271/1
f 117/313/2 41/314/2 105/315/2 72/316/2
f 194/317/6 175/318/6 142/319/6 172/320/6
f 196/321/6 171/322/6 143/323/6 169/324/6
f 202/235/6 184/234/6 158/104/6 183/237/6
f 204/325/6 168/326/6 151/327/6 186/328/6
f 210/329/6 191/330/6 155/331/6 177/332/6
f 186/328/6 151/327/6 175/318/6 194/317/6
f 159/333/6 186/328/6 194/317/6 187/334/6
f 191/330/6 196/321/6 169/324/6 155/331/6
f 168/326/6 197/335/6 178/336/6 151/327/6
f 169/324/6 143/323/6 173/337/6 200/338/6
f 172/320/6 142/319/6 167/339/6 201/340/6
f 184/234/6 201/340/6 182/105/6 158/104/6
f 183/237/6 158/104/6 185/107/6 203/341/6
f 171/322/6 203/341/6 166/342/6 143/323/6
f 174/343/6 145/344/6 168/326/6 204/325/6
f 190/345/6 161/346/6 191/330/6 210/329/6
f 37/347/4 16/348/4 126/349/4 167/350/4
f 58/351/4 112/352/4 74/353/4 178/354/4
f 12/355/5 81/356/5 187/357/5 134/358/5
f 57/359/5 24/360/5 156/361/5 93/362/5
f 50/300/4 6/363/4 145/364/4 97/301/4
f 15/365/2 36/366/2 166/367/2 128/368/2
f 27/369/5 80/370/5 87/371/5 159/372/5
f 24/360/3 90/373/3 190/374/3 156/361/3
f 41/314/5 8/375/5 147/376/5 105/315/5
f 6/363/3 48/377/3 98/378/3 145/364/3
f 36/379/4 123/380/4 70/381/4 166/382/4
f 116/284/2 63/291/2 88/294/2 200/383/2
f 111/384/4 58/385/4 178/386/4 197/387/4
f 42/388/4 119/389/4 71/390/4 170/391/4
f 17/392/3 49/393/3 174/394/3 150/395/3
f 123/380/2 45/396/2 173/397/2 70/381/2
f 45/396/2 116/284/2 200/383/2 173/397/2
f 90/373/3 29/398/3 161/399/3 190/374/3
f 81/400/5 27/369/5 159/372/5 187/401/5
f 48/377/4 111/384/4 197/387/4 98/378/4
f 119/389/2 37/347/2 167/350/2 71/390/2
f 49/393/5 103/402/5 76/403/5 174/394/5
f 29/398/3 89/305/3 77/308/3 161/399/3
f 80/370/5 17/392/5 150/395/5 87/371/5
f 112/352/4 42/388/4 170/391/4 74/353/4
f 8/375/2 56/309/2 94/310/2 147/376/2
f 76/404/6 97/405/6 145/344/6 174/343/6
f 75/406/6 93/407/6 147/408/6 94/409/6
f 201/340/6 167/339/6 126/222/6 182/105/6
f 203/341/6 185/107/6 128/66/6 166/342/6
f 187/334/6 194/317/6 172/320/6 134/233/6
f 77/410/6 136/238/6 171/322/6 196/321/6
f 161/346/6 77/410/6 196/321/6 191/330/6
f 145/344/6 98/411/6 197/335/6 168/326/6
f 151/327/6 178/336/6 74/412/6 175/318/6
f 175/318/6 74/412/6 170/413/6 142/319/6
f 155/331/6 169/324/6 200/338/6 88/414/6
f 177/332/6 155/331/6 88/414/6 72/415/6
f 147/408/6 177/332/6 72/415/6 105/416/6
f 142/319/6 170/413/6 71/417/6 167/339/6
f 134/233/6 172/320/6 201/340/6 184/234/6
f 136/238/6 183/237/6 203/341/6 171/322/6
f 143/323/6 166/342/6 70/418/6 173/337/6
f 150/419/6 174/343/6 204/325/6 87/420/6
f 87/420/6 204/325/6 186/328/6 159/333/6
f 156/421/6 190/345/6 210/329/6 93/407/6
f 93/407/6 210/329/6 177/332/6 147/408/6
